<?xml version="1.0" encoding="UTF-8"?>
<svg width="148px" height="24px" viewBox="0 0 148 24" version="1.1" xmlns="http://www.w3.org/2000/svg" xmlns:xlink="http://www.w3.org/1999/xlink">
    <!-- Generator: sketchtool 61 (101010) - https://sketch.com -->
    <title>FF4EB8FE-79B0-4CBE-A2F4-1B36C5D56748@1x</title>
    <desc>Created with sketchtool.</desc>
    <g id="Symbols" stroke="none" stroke-width="1" fill="none" fill-rule="evenodd">
        <g id="logo-signature" fill-rule="nonzero">
            <g id="Group-2" transform="translate(0.000000, 0.000000)">
                <path d="M57.8379728,4.89216 C57.837725,4.92979056 57.8325612,4.96722744 57.8226128,5.00352 C57.8226128,5.00352 54.5182928,17.96736 54.5086928,18 C53.509093,21.4430794 50.3563386,23.8127304 46.7710928,23.81568 L31.9486928,23.81568 C31.8482373,23.8135611 31.7517268,23.7761803 31.6760528,23.71008 L31.6491728,23.68128 L28.1547728,19.1712 C28.0951807,19.098703 28.0626062,19.0077658 28.0626128,18.91392 C28.0648158,18.8711499 28.0712472,18.828703 28.0818128,18.7872 L28.8056528,15.94368 L28.8056528,15.91872 C28.8458429,15.8416413 28.8991145,15.7721284 28.9630928,15.71328 L35.9058128,10.67136 C35.9147155,10.6620422 35.925095,10.6542576 35.9365328,10.64832 C36.0031577,10.6023281 36.0821358,10.5775638 36.1630928,10.57728 C36.2708696,10.5767692 36.3744074,10.6192258 36.4507979,10.6952559 C36.5271884,10.7712861 36.570134,10.874622 36.5701328,10.9824 C36.5699526,11.0181433 36.5647826,11.0536864 36.5547728,11.088 L36.5547728,11.10912 L34.9054928,16.95744 C34.8916626,16.9996478 34.8839049,17.0436078 34.8824528,17.088 C34.8824429,17.3113109 35.0623519,17.4929333 35.2856528,17.49504 L48.2187728,17.49504 C48.3923797,17.495252 48.5468238,17.3848244 48.6027728,17.22048 L48.6027728,17.20512 L51.2446928,6.84864 C51.2562077,6.80869747 51.2620251,6.76732915 51.2619728,6.72576 C51.261488,6.61798294 51.2176685,6.5149315 51.1403821,6.439812 C51.0630957,6.36469249 50.9588401,6.32382048 50.8510928,6.3264 L33.3502928,6.3264 C33.2554762,6.32874456 33.1631465,6.2959162 33.0910928,6.23424 L33.0334928,6.17856 L31.8814928,5.02656 L27.5787728,0.72192 C27.460455,0.606450842 27.4241713,0.430671414 27.4870974,0.277790611 C27.5500235,0.124909809 27.6995331,0.0256033344 27.8648528,0.0268678348 L37.8373328,0.0268678348 L52.9918928,0.0268678348 C53.0925453,0.0279899244 53.1893929,0.0655013234 53.2645328,0.13248 L53.2914128,0.16128 L57.7534928,4.63488 C57.8119606,4.70753609 57.8419891,4.79898676 57.8379728,4.89216 Z" id="Path" fill-opacity="0.2441816" fill="#0D0D0D"></path>
                <path d="M120.537493,0.01536 C120.663093,0.0153589623 120.783522,0.0653845797 120.872154,0.154377456 C120.960787,0.243370333 121.010323,0.364000613 121.009817,0.4896 C121.009555,0.528492932 121.004394,0.567198148 120.994453,0.6048 L115.353493,22.68864 C115.320364,22.7964121 115.245524,22.8864667 115.145634,22.9387561 C115.045743,22.9910454 114.929093,23.0012291 114.821653,22.96704 C114.735986,22.9410477 114.661152,22.8877874 114.608533,22.81536 L110.722453,17.77536 C110.666324,17.7015881 110.631165,17.6140238 110.620693,17.52192 C110.611105,17.4679425 110.611105,17.4126975 110.620693,17.35872 L113.817493,4.83456 L113.817493,4.83456 C114.54137,1.99838336 117.095836,0.0137721426 120.022933,0.01344 L120.537493,0.01536 Z" id="Path" fill="#FAC500"></path>
                <path d="M31.3803728,5.80608 C31.3832031,5.8328855 31.3832031,5.8599145 31.3803728,5.88672 C31.3774117,5.90165537 31.3735649,5.91640141 31.3688528,5.93088 L29.1819728,14.49024 L29.1685328,14.544 C29.1454514,14.6124591 29.1035259,14.6730182 29.0475728,14.71872 C29.0378023,14.7270068 29.0275439,14.7347006 29.0168528,14.74176 C27.9205328,15.55968 23.6005328,19.29408 23.5928528,19.29792 C23.4993814,19.375813 23.4452398,19.4911276 23.4450128,19.6128 C23.4508528,19.7193214 23.4936244,19.8204796 23.5659728,19.89888 L26.0619728,23.12064 C26.2095285,23.2842901 26.2095285,23.5329899 26.0619728,23.69664 C25.9949766,23.7624849 25.9076952,23.8037575 25.8142928,23.81376 L18.5854928,23.81376 C18.4862594,23.8081923 18.3922853,23.7673339 18.3205328,23.69856 C18.3205328,23.69856 15.6325328,20.20608 15.2485328,19.71264 L15.2485328,19.70304 C15.1825904,19.6260054 15.0900423,19.5766464 14.9893328,19.5648 L7.73173283,19.5648 C7.58238891,19.5749968 7.4515978,19.6686313 7.39381283,19.80672 L7.36501283,19.91424 L6.45301283,23.49504 C6.45096559,23.5089288 6.44709206,23.5224861 6.44149283,23.53536 C6.38950521,23.7031274 6.23310895,23.8165147 6.05749283,23.81376 L0.420372831,23.81376 C0.405068529,23.8156099 0.389597133,23.8156099 0.374292831,23.81376 C0.257201779,23.7993819 0.151306138,23.7371189 0.081811091,23.6417906 C0.0123160444,23.5464623 -0.0145625845,23.4265952 0.00757283085,23.31072 C0.00757283085,23.2896 2.49205283,13.56288 3.07957283,11.24352 L3.07957283,11.24352 C3.07957283,11.22048 3.09109283,11.19744 3.09493283,11.17632 C3.12709796,11.0867262 3.19049666,11.0117385 3.27349283,10.96512 L3.28693283,10.96512 L9.84181283,7.42272 L9.88597283,7.39776 C10.0072935,7.33650734 10.1519547,7.34394552 10.2663532,7.41731837 C10.3807517,7.49069123 10.4478453,7.61906811 10.4427728,7.75488 C10.4457054,7.78103806 10.4457054,7.80744194 10.4427728,7.8336 C10.4402557,7.8465611 10.4370511,7.85937919 10.4331728,7.872 L9.16213283,12.864 C9.16091335,12.8851024 9.16091335,12.9062576 9.16213283,12.92736 C9.16158415,13.1360878 9.32259303,13.3096755 9.53077283,13.3248 L22.3141328,13.3248 C22.4657383,13.3201889 22.6020684,13.2312779 22.6674128,13.0944 L24.2590928,6.86592 L24.2590928,6.86592 C24.2705842,6.82794289 24.2764069,6.78847758 24.2763728,6.7488 L24.2763728,6.7488 C24.2753221,6.52761588 24.0962769,6.34857077 23.8750928,6.34752 L10.6731728,6.34752 C10.5688086,6.34735409 10.4687397,6.30594627 10.3947728,6.23232 L10.3947728,6.23232 L10.3429328,6.16896 L5.89621283,0.6816 C5.82964365,0.544682969 5.83795134,0.383191106 5.9182189,0.253827861 C5.99848645,0.124464616 6.13949484,0.045311136 6.29173283,0.04416 L12.4357328,0.04416 L12.4357328,0.04416 L25.6050128,0.04416 C25.7086482,0.0469215891 25.8074089,0.0887577137 25.8814928,0.16128 L31.2363728,5.53728 L31.2363728,5.53728 L31.2882128,5.59104 L31.2882128,5.59104 C31.3405525,5.651389 31.3727682,5.72655885 31.3803728,5.80608 Z" id="Path" fill-opacity="0.2441816" fill="#0D0D0D"></path>
                <path d="M47.0667728,10.09536 C47.0678238,10.3010883 46.9124128,10.4739518 46.7077328,10.49472 L37.4360528,10.49472 C37.2906924,10.4717211 37.1666159,10.3772209 37.1058128,10.2432 C37.0764038,10.1835609 37.061909,10.1176751 37.0635728,10.0512 C37.063546,9.91129877 37.1306795,9.77988856 37.2440528,9.69792 L37.2574928,9.68832 L40.3659728,7.4304 L40.4043728,7.40352 C40.4722043,7.35245973 40.5557211,7.32665777 40.6405328,7.33056 L43.4130128,7.33056 C43.4969703,7.32861178 43.5792516,7.35424038 43.6472528,7.40352 L43.6472528,7.40352 L43.6741328,7.42272 L43.6856528,7.42272 L43.6856528,7.42272 L46.9496528,9.79584 C47.037646,9.86886481 47.081891,9.98201603 47.0667728,10.09536 L47.0667728,10.09536 Z" id="Path" fill-opacity="0.2441816" fill="#0D0D0D"></path>
                <path d="M94.0107728,13.74336 C94.0019524,13.5354706 94.1603138,13.3583783 94.3678928,13.344 L103.568533,13.344 C103.649958,13.3422282 103.73031,13.3628144 103.800853,13.40352 C103.87487,13.4500172 103.934136,13.516608 103.971733,13.59552 C103.996431,13.6566291 104.010083,13.721638 104.012053,13.78752 C104.006633,13.9218789 103.941063,14.046673 103.833493,14.12736 L100.698133,16.4064 L100.675093,16.42368 C100.604259,16.4698562 100.521568,16.4945301 100.437013,16.49472 L97.6626128,16.49472 C97.5792497,16.4945639 97.4977792,16.4698557 97.4283728,16.42368 L97.4283728,16.42368 L97.4014928,16.40448 L97.3899728,16.39488 L97.3899728,16.39488 L94.1259728,14.02176 C94.043365,13.9541141 94.0001169,13.8495978 94.0107728,13.74336 L94.0107728,13.74336 Z" id="Path" fill-opacity="0.2441816" fill="#0D0D0D"></path>
                <path d="M114.030613,23.47776 C114.028411,23.5364458 114.010509,23.5934669 113.978773,23.64288 L113.961493,23.664 C113.93811,23.6912321 113.9117,23.7157101 113.882773,23.73696 C113.816148,23.7829519 113.73717,23.8077162 113.656213,23.808 L86.8837328,23.808 C86.7831376,23.8077124 86.6863938,23.7692893 86.6130128,23.70048 L86.6130128,23.69088 L86.6130128,23.68128 L86.5880528,23.65248 L85.0002128,21.59808 L82.9016528,18.88128 L82.8670928,18.83712 L82.8670928,18.83712 C82.8142395,18.7574377 82.7930156,18.6609031 82.8075728,18.5664 L82.8075728,18.53568 L82.8210128,18.48576 L84.3339728,12.55488 L84.7698128,10.85952 L86.0523728,5.83296 L86.0523728,5.7984 C86.9649108,2.61568692 89.7366596,0.318855472 93.0334928,0.01344 L108.134293,0.01344 C108.235046,0.014021243 108.332074,0.0516024687 108.406933,0.11904 L108.433813,0.14592 L112.830613,4.57536 L112.886293,4.63104 C112.947969,4.70309365 112.980797,4.79542342 112.978453,4.89024 C112.978012,4.93317019 112.971549,4.97582615 112.959253,5.01696 L112.206613,7.95456 L112.206613,7.97952 C112.183387,8.0547014 112.138669,8.12144362 112.077973,8.17152 C112.069016,8.1802651 112.058625,8.18740872 112.047253,8.19264 L105.177493,13.16736 C105.168035,13.1754754 105.157737,13.1825557 105.146773,13.18848 C105.080886,13.236182 105.001554,13.2617297 104.920213,13.26144 C104.812435,13.2614412 104.709099,13.2184956 104.633069,13.1421051 C104.557039,13.0657146 104.514582,12.9621768 104.515093,12.8544 L104.515093,12.8544 C104.51359,12.8185505 104.518799,12.7827358 104.530453,12.7488 C104.528947,12.7418406 104.528947,12.7346394 104.530453,12.72768 L106.173973,6.86976 C106.185408,6.82633598 106.193116,6.78201511 106.197013,6.73728 C106.195973,6.5136575 106.015508,6.33233735 105.791893,6.33024 L92.3230928,6.33024 C92.1491698,6.33089543 91.9948786,6.44198503 91.9390928,6.60672 L91.9390928,6.62016 L89.2914128,16.98816 C89.2838552,17.010713 89.2780775,17.0338238 89.2741328,17.05728 C89.2540321,17.1830662 89.2954418,17.3108654 89.3854928,17.40096 C89.4251712,17.4417039 89.4738261,17.4726063 89.5275728,17.4912 C89.5535307,17.5013807 89.5805971,17.5084695 89.6082128,17.51232 C89.6273652,17.514232 89.6466604,17.514232 89.6658128,17.51232 L109.313173,17.51232 C109.407968,17.5116722 109.500125,17.5435203 109.574293,17.60256 L109.629973,17.65824 C109.629973,17.65824 113.973013,23.27808 113.978773,23.28768 C114.015817,23.3439196 114.033975,23.4105006 114.030613,23.47776 Z" id="Path" fill-opacity="0.2441816" fill="#0D0D0D"></path>
                <path d="M78.6603728,6.84288 C78.6712671,6.79765895 78.674512,6.75093282 78.6699728,6.70464 C78.6538373,6.4954176 78.4785302,6.33436986 78.2686928,6.336 L64.9438928,6.336 C64.769779,6.33606601 64.6151802,6.44737714 64.5598928,6.61248 L64.5598928,6.624 L64.4293328,7.08672 L61.8910928,17.03808 C61.889201,17.063645 61.889201,17.089315 61.8910928,17.11488 C61.8911626,17.2042322 61.9216324,17.2909017 61.9774928,17.36064 L61.9774928,17.37024 C62.0423497,17.4476109 62.1344573,17.4971016 62.2347728,17.50848 L80.6494928,17.50848 C80.7571011,17.5107907 80.8587998,17.5581572 80.9298128,17.63904 L85.2229328,23.19552 C85.3233306,23.348663 85.3067116,23.550465 85.1826128,23.68512 C85.1785213,23.6872832 85.175176,23.6906284 85.1730128,23.69472 L85.1730128,23.69472 C85.0994408,23.7629952 85.002663,23.8007454 84.9022928,23.8003236 L59.3221328,23.8003236 C59.2268579,23.7980277 59.1358396,23.7603885 59.0667728,23.69472 C59.0500761,23.6806582 59.0352369,23.6645286 59.0226128,23.64672 L55.3150928,18.84672 L55.2421328,18.75072 L55.2325328,18.73728 C55.2048253,18.6811458 55.1903741,18.6194 55.1902928,18.5568 C55.1896059,18.5420942 55.1896059,18.5273458 55.1902928,18.51264 C55.1902928,18.49536 55.1902928,18.47616 55.1902928,18.45696 L58.4082128,5.88288 C58.4082128,5.8464 58.4254928,5.80992 58.4350928,5.77536 C59.369297,2.59142593 62.1540231,0.301525473 65.4584528,0 L80.6264528,0 C80.7272748,0 80.8244276,0.037848868 80.8990928,0.1056 L80.9278928,0.13248 L85.3016528,4.54848 L85.3573328,4.60416 C85.400582,4.6552947 85.4297056,4.71685146 85.4418128,4.78272 C85.4447454,4.80887806 85.4447454,4.83528194 85.4418128,4.86144 C85.4397498,4.90485604 85.4333173,4.94795372 85.4226128,4.99008 L84.6546128,7.98144 L84.6546128,8.00832 C84.6295659,8.07991855 84.5850106,8.14309391 84.5259728,8.19072 C84.5169432,8.19989371 84.5065879,8.20766022 84.4952528,8.21376 L77.6523728,13.16736 C77.6429285,13.1760473 77.632637,13.1837659 77.6216528,13.1904 C77.4887691,13.2805884 77.3155193,13.2850884 77.1781328,13.20192 C77.0567221,13.1295503 76.9834372,12.9976377 76.9861328,12.85632 L76.9861328,12.85632 C76.9855948,12.8205265 76.9907802,12.784877 77.0014928,12.75072 C76.9999866,12.7437606 76.9999866,12.7365594 77.0014928,12.7296 L78.6411728,6.87744 L78.6603728,6.84288 Z" id="Path" fill-opacity="0.2441816" fill="#0D0D0D"></path>
                <path d="M147.741973,5.90592 C147.741973,5.96736 147.644053,6.31296 147.644053,6.31296 L144.664213,18.01536 C144.165013,19.74336 142.999573,21.21984 141.515413,22.25856 C140.657188,22.8592157 139.700778,23.3055839 138.689173,23.5776 C138.266783,23.6892233 137.835868,23.7656449 137.400853,23.80608 L116.505493,23.80608 C116.37814,23.7968172 116.263721,23.724856 116.200213,23.61408 L116.200213,23.61408 C116.169186,23.5677563 116.148252,23.5154228 116.138773,23.46048 C116.135935,23.4349586 116.135935,23.4092014 116.138773,23.38368 C116.137772,23.3696178 116.137772,23.3555022 116.138773,23.34144 L116.138773,23.29728 L116.138773,23.29728 L116.138773,23.29728 C116.138087,23.2889741 116.138087,23.2806259 116.138773,23.27232 L116.138773,23.26272 L116.150293,23.2128 L116.171413,23.1264 L116.190613,23.05344 L116.225173,22.92288 L116.236693,22.87296 L116.273173,22.72896 L116.298133,22.63104 L116.330773,22.50816 L116.376853,22.31616 L116.411413,22.18368 L116.465173,21.9744 L116.501653,21.82464 L119.222293,11.18016 C119.251007,11.0802244 119.320796,10.9971763 119.414293,10.95168 L119.494933,10.90752 L126.022933,7.3824 L126.065173,7.35936 C126.104741,7.34601035 126.146298,7.33951698 126.188053,7.34016 C126.40013,7.34016 126.572053,7.51208266 126.572053,7.72416 C126.574985,7.75031806 126.574985,7.77672194 126.572053,7.80288 C126.573149,7.81565654 126.573149,7.82850346 126.572053,7.84128 L125.301013,12.83328 L125.301013,12.86016 L124.260373,16.93632 C124.250945,16.9780455 124.244529,17.0203946 124.241173,17.06304 C124.241733,17.2773318 124.402668,17.4572493 124.615573,17.4816 L138.205333,17.4816 C138.383589,17.4724623 138.53707,17.3527476 138.589333,17.18208 C138.594948,17.1685454 138.598819,17.1543515 138.600853,17.13984 L141.219733,6.86784 C141.231158,6.823113 141.238865,6.77751755 141.242773,6.73152 C141.244626,6.70979945 141.244626,6.68796055 141.242773,6.66624 C141.210705,6.45738664 141.03167,6.30276562 140.820373,6.30144 L126.760213,6.30144 C126.669971,6.29296167 126.585636,6.25283489 126.522133,6.18816 L126.522133,6.18816 L126.470293,6.12672 L122.029333,0.64512 L122.015893,0.624 C122.006421,0.605319851 121.998086,0.586084854 121.990933,0.5664 C121.990933,0.5472 121.981333,0.52608 121.977493,0.50688 C121.97559,0.487085615 121.97559,0.467154385 121.977493,0.44736 C121.974654,0.419913195 121.974654,0.392246805 121.977493,0.3648 C122.018972,0.155874754 122.200368,0.00404524736 122.413333,4.09272616e-14 L141.914773,4.09272616e-14 L141.949333,4.09272616e-14 C142.015304,0.0184507223 142.075453,0.0534827807 142.124053,0.10176 L147.651733,5.63712 L147.651733,5.63712 C147.716828,5.71088624 147.749369,5.80781741 147.741973,5.90592 L147.741973,5.90592 Z" id="Path" fill="#FAC500"></path>
            </g>
        </g>
    </g>
</svg>